<svg width="26" height="18" viewBox="0 0 26 18" fill="none" xmlns="http://www.w3.org/2000/svg">
<path d="M25.4567 2.81639C25.1577 1.7078 24.2767 0.834703 23.158 0.538406C21.1304 0 13 0 13 0C13 0 4.86961 0 2.84197 0.538406C1.72334 0.83475 0.842317 1.7078 0.543295 2.81639C0 4.82578 0 9.01819 0 9.01819C0 9.01819 0 13.2106 0.543295 15.22C0.842317 16.3286 1.72334 17.1653 2.84197 17.4616C4.86961 18 13 18 13 18C13 18 21.1304 18 23.158 17.4616C24.2767 17.1653 25.1577 16.3286 25.4567 15.22C26 13.2106 26 9.01819 26 9.01819C26 9.01819 26 4.82578 25.4567 2.81639ZM10.3409 12.8246V5.2118L17.1363 9.01828L10.3409 12.8246Z" fill="url(#paint0_linear_3_41)"/>
<defs>
<linearGradient id="paint0_linear_3_41" x1="13" y1="0" x2="13" y2="18" gradientUnits="userSpaceOnUse">
<stop stop-color="#FF013E"/>
<stop offset="1" stop-color="#C90060"/>
</linearGradient>
</defs>
</svg>
