<svg width="19" height="22" viewBox="0 0 19 22" fill="none" xmlns="http://www.w3.org/2000/svg">
<path d="M19 9.02185C17.1323 9.02638 15.3104 8.43628 13.7917 7.3349V15.0162C13.7912 16.4389 13.362 17.8275 12.5615 18.9963C11.761 20.1652 10.6273 21.0586 9.3121 21.5571C7.99689 22.0556 6.5628 22.1354 5.20161 21.7859C3.84041 21.4363 2.61698 20.6741 1.69492 19.6011C0.772852 18.5281 0.196098 17.1955 0.0417749 15.7814C-0.112548 14.3674 0.162917 12.9393 0.831335 11.6882C1.49975 10.437 2.52927 9.42241 3.78221 8.78004C5.03515 8.13767 6.45181 7.89815 7.84275 8.09349V11.9569C7.20625 11.7541 6.52277 11.7602 5.88991 11.9744C5.25704 12.1886 4.70716 12.5999 4.31879 13.1496C3.93042 13.6992 3.72342 14.3592 3.72735 15.0352C3.73128 15.7112 3.94594 16.3686 4.34067 16.9136C4.73541 17.4586 5.29003 17.8633 5.92534 18.07C6.56065 18.2766 7.24416 18.2745 7.87825 18.0641C8.51235 17.8537 9.0646 17.4457 9.45615 16.8983C9.8477 16.3509 10.0585 15.6922 10.0585 15.0162V0H13.7917C13.7891 0.319399 13.8155 0.638362 13.8706 0.952858C14.0004 1.65492 14.2701 2.32279 14.6633 2.91562C15.0566 3.50845 15.565 4.01378 16.1577 4.40068C17.0008 4.96548 17.9893 5.26651 19 5.26629V9.02185Z" fill="url(#paint0_linear_3_40)"/>
<defs>
<linearGradient id="paint0_linear_3_40" x1="9.5" y1="0" x2="9.5" y2="22" gradientUnits="userSpaceOnUse">
<stop stop-color="#FF013E"/>
<stop offset="1" stop-color="#C90060"/>
</linearGradient>
</defs>
</svg>
