<svg data-mode="fill" xmlns="http://www.w3.org/2000/svg" width="32" height="32"><path d="M21.984 9.568c-.096-.096-.288-.096-.416.032L13.6 18.048c-.128.128-.32.128-.416 0l-2.848-2.816c-.096-.128-.288-.128-.416 0l-1.696 1.696a.31.31 0 0 0 0 .448l5.056 5.056c.096.096.288.096.416-.032l10.112-10.72a.3.3 0 0 0-.032-.416l-1.792-1.696zM16 1.984C8.256 1.984 2.016 8.256 2.016 16S8.256 30.016 16 30.016 30.016 23.744 30.016 16 23.744 1.984 16 1.984zm0 25.824C9.504 27.808 4.192 22.496 4.192 16S9.504 4.192 16 4.192A11.8 11.8 0 0 1 27.808 16 11.8 11.8 0 0 1 16 27.808z" fill="white" /></svg>